<?xml version="1.0" encoding="UTF-8"?>
<!DOCTYPE svg PUBLIC "-//W3C//DTD SVG 1.1//EN" "http://www.w3.org/Graphics/SVG/1.1/DTD/svg11.dtd">
<svg xmlns="http://www.w3.org/2000/svg" version="1.1" width="1400px" height="1400px" style="shape-rendering:geometricPrecision; text-rendering:geometricPrecision; image-rendering:optimizeQuality; fill-rule:evenodd; clip-rule:evenodd" xmlns:xlink="http://www.w3.org/1999/xlink">
<g><path style="opacity:0.942" fill="#064e16" d="M 285.5,463.5 C 286.822,463.33 287.989,463.663 289,464.5C 290.398,474.13 294.565,482.297 301.5,489C 321.382,500.38 339.715,513.88 356.5,529.5C 362.864,538.756 366.364,549.09 367,560.5C 368.466,590.82 368.8,621.153 368,651.5C 365.61,672.023 357.11,689.523 342.5,704C 329.538,715.808 316.205,727.141 302.5,738C 300.5,738.667 298.5,738.667 296.5,738C 293.028,732.894 289.194,728.06 285,723.5C 284.333,721.833 284.333,720.167 285,718.5C 300.386,703.778 315.72,689.111 331,674.5C 333.427,670.46 335.094,666.126 336,661.5C 337.647,625.839 337.314,590.172 335,554.5C 334.369,548.408 331.536,543.575 326.5,540C 312.522,532.428 299.689,523.262 288,512.5C 274.854,523.169 261.021,533.003 246.5,542C 241.842,549.753 239.509,558.253 239.5,567.5C 241.026,591.807 241.86,616.14 242,640.5C 242.963,644.886 244.797,648.886 247.5,652.5C 260.822,665.654 274.322,678.654 288,691.5C 288.667,692.5 288.667,693.5 288,694.5C 282.323,699.511 276.657,704.511 271,709.5C 269.016,709.259 267.183,708.592 265.5,707.5C 251.866,696.698 238.699,685.365 226,673.5C 218.581,663.999 213.914,653.332 212,641.5C 210.708,612.249 210.708,582.915 212,553.5C 213.238,539.112 219.072,526.946 229.5,517C 243.717,507.303 257.883,497.469 272,487.5C 274.753,482.992 277.753,478.659 281,474.5C 281.414,470.346 282.914,466.679 285.5,463.5 Z"/></g>
<g><path style="opacity:0.959" fill="#064e16" d="M 1285.5,611.5 C 1306.28,610.958 1326.28,614.458 1345.5,622C 1347.67,623.5 1349.83,625 1352,626.5C 1352.17,627.667 1352.33,628.833 1352.5,630C 1350.15,636.052 1347.98,642.219 1346,648.5C 1344.63,652.133 1342.8,655.467 1340.5,658.5C 1338.24,659.647 1335.9,659.814 1333.5,659C 1314.24,650.638 1294.24,648.305 1273.5,652C 1264.51,656.782 1262.85,663.282 1268.5,671.5C 1283.92,678.344 1299.92,683.178 1316.5,686C 1354.09,696.951 1365.93,720.784 1352,757.5C 1349.58,760.249 1347.58,763.249 1346,766.5C 1334.47,778.016 1320.64,785.183 1304.5,788C 1273.24,791.571 1243.9,785.904 1216.5,771C 1215.15,769.383 1213.48,768.216 1211.5,767.5C 1211.01,766.554 1210.68,765.554 1210.5,764.5C 1213.74,755.517 1217.57,746.85 1222,738.5C 1222.8,737.196 1223.97,736.529 1225.5,736.5C 1239.47,743.005 1254.13,747.505 1269.5,750C 1279.17,750.667 1288.83,750.667 1298.5,750C 1302.54,748.227 1306.38,746.06 1310,743.5C 1314.73,733.789 1311.9,727.289 1301.5,724C 1281.34,720.944 1262,715.277 1243.5,707C 1236.12,702.624 1229.62,697.124 1224,690.5C 1218.95,681.133 1217.28,671.133 1219,660.5C 1223.25,637.911 1236.41,623.078 1258.5,616C 1267.55,613.885 1276.55,612.385 1285.5,611.5 Z"/></g>
<g><path style="opacity:0.961" fill="#064e16" d="M 917.5,612.5 C 940.196,609.282 961.53,613.115 981.5,624C 988.769,629.136 995.436,634.97 1001.5,641.5C 1003.33,645.526 1002.33,648.693 998.5,651C 991.213,656.883 983.713,662.383 976,667.5C 970.309,664.398 964.809,660.898 959.5,657C 940.478,648.601 922.145,649.935 904.5,661C 887.97,675.605 882.47,693.772 888,715.5C 896.984,738.871 914.151,750.038 939.5,749C 946.271,747.713 952.938,746.046 959.5,744C 965.622,740.207 971.456,736.04 977,731.5C 985.915,738.076 994.248,745.409 1002,753.5C 1002.71,755.899 1002.54,758.232 1001.5,760.5C 988.099,775.356 971.433,784.523 951.5,788C 909.516,794.084 876.35,780.25 852,746.5C 830.426,705.068 835.926,667.901 868.5,635C 873.506,631.325 878.506,627.658 883.5,624C 894.551,619.039 905.884,615.206 917.5,612.5 Z"/></g>
<g><path style="opacity:0.968" fill="#064e16" d="M 657.5,614.5 C 664.988,615.815 672.488,615.815 680,614.5C 682.795,615.185 685.628,615.685 688.5,616C 712.333,645.996 736.333,675.829 760.5,705.5C 761.333,676.172 761.833,646.839 762,617.5C 762.5,617 763,616.5 763.5,616C 777.5,615.333 791.5,615.333 805.5,616C 806,616.5 806.5,617 807,617.5C 807.176,654.029 807.676,690.529 808.5,727C 807.845,746.376 807.179,765.709 806.5,785C 796.561,786.562 786.561,786.895 776.5,786C 773.175,785.861 770.175,784.861 767.5,783C 743.698,753.028 719.698,723.195 695.5,693.5C 694.977,723.889 694.144,754.222 693,784.5C 691.933,785.191 690.766,785.691 689.5,786C 684,786.167 678.5,786.333 673,786.5C 665.073,786.69 657.239,786.024 649.5,784.5C 648.338,729.208 648.171,673.874 649,618.5C 649.374,617.584 649.874,616.75 650.5,616C 653.036,615.814 655.369,615.314 657.5,614.5 Z"/></g>
<g><path style="opacity:0.966" fill="#064e16" d="M 410.5,615.5 C 451.406,615.17 492.239,615.503 533,616.5C 534.101,622.589 534.601,628.755 534.5,635C 534.333,640.167 534.167,645.333 534,650.5C 533.626,651.416 533.126,652.25 532.5,653C 506.827,653.167 481.16,653.667 455.5,654.5C 454.861,665.349 454.861,676.349 455.5,687.5C 477.546,687.178 499.546,687.511 521.5,688.5C 522.251,689.376 522.751,690.376 523,691.5C 523.456,701.593 523.456,711.593 523,721.5C 522.5,722.667 521.667,723.5 520.5,724C 498.826,724.167 477.159,724.667 455.5,725.5C 455.028,744.965 454.528,764.632 454,784.5C 452.601,785.227 451.101,785.727 449.5,786C 438.5,786.667 427.5,786.667 416.5,786C 413.666,785.955 411.166,785.121 409,783.5C 408.333,728.167 408.333,672.833 409,617.5C 409.717,616.956 410.217,616.289 410.5,615.5 Z"/></g>
<g><path style="opacity:0.971" fill="#064e16" d="M 560.5,615.5 C 574.837,615.333 589.171,615.5 603.5,616C 604,616.5 604.5,617 605,617.5C 605.175,669.855 605.675,722.189 606.5,774.5C 605.861,777.475 605.361,780.475 605,783.5C 604.326,784.578 603.326,785.245 602,785.5C 589.856,786.617 577.689,786.783 565.5,786C 563.567,785.749 561.734,785.249 560,784.5C 559.171,728.096 559.338,671.763 560.5,615.5 Z"/></g>
<g><path style="opacity:0.964" fill="#064e16" d="M 1089.5,615.5 C 1102.52,615.168 1115.52,615.501 1128.5,616.5C 1129.31,617.216 1129.98,618.05 1130.5,619C 1149.15,663.616 1168.65,707.782 1189,751.5C 1192.21,760.686 1195.88,769.686 1200,778.5C 1200.5,780.81 1200.66,783.143 1200.5,785.5C 1186.85,786.552 1173.19,786.718 1159.5,786C 1157.15,785.654 1155.32,784.487 1154,782.5C 1150.75,773.084 1146.92,763.917 1142.5,755C 1118.83,754.167 1095.16,754.334 1071.5,755.5C 1066.58,765.239 1061.92,775.073 1057.5,785C 1044.56,786.589 1031.56,786.922 1018.5,786C 1016.9,785.727 1015.4,785.227 1014,784.5C 1018.18,771.454 1023.52,758.787 1030,746.5C 1047.74,705.348 1065.74,664.348 1084,623.5C 1085.6,620.631 1087.43,617.964 1089.5,615.5 Z M 1107.5,672.5 C 1108.88,673.574 1110.05,674.907 1111,676.5C 1116.46,691.231 1122.3,705.731 1128.5,720C 1128.37,721.059 1127.87,721.892 1127,722.5C 1116.93,722.51 1106.77,722.344 1096.5,722C 1093.45,721.821 1090.45,721.321 1087.5,720.5C 1092.65,703.912 1099.32,687.912 1107.5,672.5 Z"/></g>
<g><path style="opacity:0.942" fill="#064e16" d="M 170.5,686.5 C 191.372,684.948 211.705,687.448 231.5,694C 238.654,697.265 245.321,701.265 251.5,706C 268.85,724.335 285.017,743.502 300,763.5C 307.451,780.746 312.118,798.746 314,817.5C 314.632,854.018 315.466,890.518 316.5,927C 316.139,929.449 315.472,931.782 314.5,934C 304.833,934.667 295.167,934.667 285.5,934C 284.667,933.167 283.833,932.333 283,931.5C 283.284,899.503 283.284,867.503 283,835.5C 282.404,817.924 280.07,800.591 276,783.5C 274.451,778.283 272.451,773.283 270,768.5C 259.441,757.062 249.108,745.395 239,733.5C 232.464,725.151 223.964,720.317 213.5,719C 177.474,718.31 141.474,718.976 105.5,721C 103.083,722.626 100.583,724.126 98,725.5C 92.9706,732.562 88.304,739.895 84,747.5C 78.561,754.579 73.061,761.579 67.5,768.5C 78.2485,781.139 87.9151,794.639 96.5,809C 99.3707,810.935 102.371,812.601 105.5,814C 113.289,815.051 121.122,815.551 129,815.5C 152.549,815.183 176.049,814.35 199.5,813C 204.484,810.169 209.151,806.835 213.5,803C 223.315,791.684 233.315,780.518 243.5,769.5C 245.078,768.36 246.744,767.86 248.5,768C 253.694,773.194 258.86,778.36 264,783.5C 264.635,785.635 264.301,787.635 263,789.5C 251.916,803.922 240.082,817.755 227.5,831C 209.044,842.897 188.711,847.564 166.5,845C 147.149,845.723 127.816,845.39 108.5,844C 91.1855,842.261 77.3522,834.427 67,820.5C 61.6352,811.813 56.3019,803.146 51,794.5C 47.97,790.809 44.97,787.142 42,783.5C 34.6339,778.318 26.9672,773.651 19,769.5C 18.4926,768.004 18.9926,766.837 20.5,766C 28.2706,765.302 35.104,762.469 41,757.5C 48.844,746.474 56.1773,735.141 63,723.5C 67.3799,718.789 71.3799,713.789 75,708.5C 81.5511,701.144 89.3844,695.644 98.5,692C 104.393,690.36 110.393,689.36 116.5,689C 134.654,688.066 152.654,687.233 170.5,686.5 Z"/></g>
<g><path style="opacity:0.9" fill="#064e16" d="M 557.5,839.5 C 568.096,838.661 578.43,839.828 588.5,843C 601.347,851.88 605.18,863.714 600,878.5C 598.106,882.236 595.606,885.569 592.5,888.5C 588.842,891.164 584.842,892.997 580.5,894C 572.5,894.667 564.5,894.667 556.5,894C 556,893.5 555.5,893 555,892.5C 554.424,876.881 553.924,861.214 553.5,845.5C 553.937,842.775 555.27,840.775 557.5,839.5 Z M 569.5,852.5 C 583.653,851.152 589.82,857.486 588,871.5C 584.251,881.549 577.417,884.549 567.5,880.5C 567.666,871.364 568.332,862.03 569.5,852.5 Z"/></g>
<g><path style="opacity:0.862" fill="#064e16" d="M 616.5,839.5 C 629.171,839.333 641.838,839.5 654.5,840C 659.285,843.26 659.619,846.927 655.5,851C 646.279,851.853 637.112,852.686 628,853.5C 627.013,856.697 627.513,859.53 629.5,862C 636.833,862.333 644.167,862.667 651.5,863C 653.729,865.553 654.062,868.386 652.5,871.5C 651.271,872.281 649.938,872.781 648.5,873C 641.508,873.5 634.508,873.666 627.5,873.5C 627.756,875.792 627.423,877.959 626.5,880C 627.167,880.667 627.833,881.333 628.5,882C 637.833,882.333 647.167,882.667 656.5,883C 659.287,885.167 660.12,888.001 659,891.5C 658.5,892.667 657.667,893.5 656.5,894C 643.167,894.667 629.833,894.667 616.5,894C 616,893.5 615.5,893 615,892.5C 613.362,875.591 613.029,858.591 614,841.5C 614.995,840.934 615.828,840.267 616.5,839.5 Z"/></g>
<g><path style="opacity:0.885" fill="#064e16" d="M 720.5,839.5 C 723.85,839.335 727.183,839.502 730.5,840C 731.333,840.833 732.167,841.667 733,842.5C 739.703,857.994 746.703,873.327 754,888.5C 754.72,890.112 754.554,891.612 753.5,893C 749.961,894.504 746.295,894.837 742.5,894C 739.706,890.459 737.373,886.626 735.5,882.5C 728.833,881.167 722.167,881.167 715.5,882.5C 713.996,886.852 711.663,890.686 708.5,894C 697.658,896.16 694.825,892.327 700,882.5C 707.122,868.301 713.955,853.967 720.5,839.5 Z M 724.5,859.5 C 725.496,859.414 726.329,859.748 727,860.5C 727.26,862.618 728.26,864.284 730,865.5C 730.49,866.793 730.657,868.127 730.5,869.5C 727.5,869.5 724.5,869.5 721.5,869.5C 722.424,866.204 723.424,862.871 724.5,859.5 Z"/></g>
<g><path style="opacity:0.866" fill="#064e16" d="M 780.5,839.5 C 789.162,838.663 797.495,839.829 805.5,843C 811.661,846.491 811.994,850.491 806.5,855C 800.841,853.688 795.008,852.521 789,851.5C 775.128,853.893 770.461,861.893 775,875.5C 779.814,882.145 786.314,884.312 794.5,882C 797.881,881.939 800.714,880.773 803,878.5C 806.202,879.527 808.702,881.527 810.5,884.5C 809.028,887.805 806.695,890.305 803.5,892C 788.676,897.542 775.843,894.709 765,883.5C 755.513,863.374 760.68,848.708 780.5,839.5 Z"/></g>
<g><path style="opacity:0.891" fill="#064e16" d="M 839.5,839.5 C 853.299,836.49 864.799,840.157 874,850.5C 883.552,868.083 879.719,881.916 862.5,892C 851.319,895.958 840.652,894.958 830.5,889C 820.28,879.252 817.78,867.752 823,854.5C 826.855,847.469 832.355,842.469 839.5,839.5 Z M 842.5,852.5 C 860.265,849.614 867.431,856.948 864,874.5C 862.542,876.96 860.709,879.127 858.5,881C 841.767,885.972 833.601,879.805 834,862.5C 835.297,857.714 838.13,854.381 842.5,852.5 Z"/></g>
<g><path style="opacity:0.891" fill="#064e16" d="M 894.5,839.5 C 897.32,839.248 899.986,839.748 902.5,841C 909.986,850.327 917.319,859.827 924.5,869.5C 925.191,860.138 925.858,850.804 926.5,841.5C 930.603,838.959 934.77,838.959 939,841.5C 939.667,858.167 939.667,874.833 939,891.5C 935.205,894.803 931.038,895.303 926.5,893C 919.275,884.035 911.942,875.201 904.5,866.5C 903.668,875.148 903.168,883.814 903,892.5C 898.807,895.285 894.807,894.952 891,891.5C 890.333,875.167 890.333,858.833 891,842.5C 891.985,841.186 893.152,840.186 894.5,839.5 Z"/></g>
<g><path style="opacity:0.869" fill="#064e16" d="M 968.5,839.5 C 975.175,839.334 981.842,839.5 988.5,840C 992.793,841.424 996.626,843.591 1000,846.5C 1000.66,850.025 999.491,852.859 996.5,855C 990.701,853.587 984.701,852.421 978.5,851.5C 966.398,852.679 961.231,859.346 963,871.5C 966.728,881.78 973.894,885.28 984.5,882C 988.178,882.037 991.344,880.871 994,878.5C 996.807,879.756 998.974,881.756 1000.5,884.5C 999.872,886.258 998.872,887.758 997.5,889C 984.861,896.286 972.194,896.286 959.5,889C 949.15,878.929 946.65,867.095 952,853.5C 954.872,850.963 957.372,848.13 959.5,845C 962.752,843.434 965.752,841.601 968.5,839.5 Z"/></g>
<g><path style="opacity:0.891" fill="#064e16" d="M 1032.5,839.5 C 1035.52,839.335 1038.52,839.502 1041.5,840C 1042,840.5 1042.5,841 1043,841.5C 1051.11,857.08 1057.94,873.247 1063.5,890C 1063.41,891.107 1063.08,892.107 1062.5,893C 1058.31,895.158 1054.47,894.658 1051,891.5C 1048.78,888.46 1047.28,885.127 1046.5,881.5C 1039.83,881.5 1033.17,881.5 1026.5,881.5C 1025.17,885.64 1023.17,889.474 1020.5,893C 1018.19,894.11 1015.86,894.61 1013.5,894.5C 1010.84,894.502 1009.51,893.169 1009.5,890.5C 1015.81,872.889 1023.48,855.889 1032.5,839.5 Z M 1036.5,859.5 C 1038.06,862.624 1039.72,865.791 1041.5,869C 1038.85,869.497 1036.19,869.664 1033.5,869.5C 1033.92,865.988 1034.92,862.655 1036.5,859.5 Z"/></g>
<g><path style="opacity:0.871" fill="#064e16" d="M 1086.5,839.5 C 1093.51,839.334 1100.51,839.5 1107.5,840C 1120.28,844.24 1120.61,849.074 1108.5,854.5C 1100.24,850.203 1092.24,850.536 1084.5,855.5C 1078.43,865.198 1079.77,873.698 1088.5,881C 1093.76,882.439 1099.1,882.772 1104.5,882C 1105.42,879.959 1105.76,877.792 1105.5,875.5C 1097.06,876.136 1094.73,872.636 1098.5,865C 1105.12,862.924 1111.62,863.091 1118,865.5C 1119.67,873.146 1119.67,880.813 1118,888.5C 1116.83,889.667 1115.67,890.833 1114.5,892C 1103.83,895.29 1093.16,895.29 1082.5,892C 1072.75,886.338 1067.75,877.838 1067.5,866.5C 1068,853.344 1074.33,844.344 1086.5,839.5 Z"/></g>
<g><path style="opacity:0.875" fill="#064e16" d="M 1133.5,839.5 C 1136.21,839.737 1138.71,839.737 1141,839.5C 1143.96,841.221 1145.46,843.888 1145.5,847.5C 1144.38,856.168 1144.55,864.835 1146,873.5C 1147.35,881.176 1151.85,883.676 1159.5,881C 1160.33,880.167 1161.17,879.333 1162,878.5C 1163.06,866.161 1163.89,853.828 1164.5,841.5C 1168.17,838.833 1171.83,838.833 1175.5,841.5C 1176.88,854.826 1176.71,868.16 1175,881.5C 1169.4,892.135 1160.56,896.302 1148.5,894C 1143.07,892.54 1138.57,889.707 1135,885.5C 1131.36,876.622 1129.86,867.288 1130.5,857.5C 1130.67,853.167 1130.83,848.833 1131,844.5C 1131.37,842.548 1132.2,840.882 1133.5,839.5 Z"/></g>
<g><path style="opacity:0.888" fill="#064e16" d="M 1208.5,839.5 C 1212.18,839.335 1215.85,839.501 1219.5,840C 1224.21,846.79 1227.38,854.29 1229,862.5C 1233.99,871.814 1238.49,881.48 1242.5,891.5C 1242.02,892.478 1241.36,893.311 1240.5,894C 1237.17,894.667 1233.83,894.667 1230.5,894C 1227.71,890.459 1225.37,886.626 1223.5,882.5C 1217.19,881.336 1210.86,881.169 1204.5,882C 1202.86,884.786 1201.36,887.619 1200,890.5C 1196.33,894.873 1191.99,895.54 1187,892.5C 1186.67,889.793 1187.01,887.126 1188,884.5C 1194.74,869.45 1201.57,854.45 1208.5,839.5 Z M 1212.5,859.5 C 1213.68,859.281 1214.68,859.614 1215.5,860.5C 1216.93,863.333 1217.6,866.333 1217.5,869.5C 1214.83,869.5 1212.17,869.5 1209.5,869.5C 1210.42,866.204 1211.42,862.871 1212.5,859.5 Z"/></g>
<g><path style="opacity:0.832" fill="#064e16" d="M 388.5,865.5 C 436.834,865.333 485.168,865.5 533.5,866C 536.399,869.156 536.065,871.822 532.5,874C 485.5,874.667 438.5,874.667 391.5,874C 387.531,872.317 386.531,869.484 388.5,865.5 Z"/></g>
<g><path style="opacity:0.828" fill="#064e16" d="M 1259.5,865.5 C 1301.17,865.333 1342.83,865.5 1384.5,866C 1387.2,868.995 1386.86,871.662 1383.5,874C 1342.5,874.667 1301.5,874.667 1260.5,874C 1256.87,871.653 1256.53,868.82 1259.5,865.5 Z"/></g>
</svg>
